<svg height="512" viewBox="0 0 512 512" width="512" xmlns="http://www.w3.org/2000/svg"><g id="flat"><path d="m296 341.859 147.7 73.853a60 60 0 0 1 32.612 45.488l3.688 26.8h-448l3.688-26.8a60 60 0 0 1 32.612-45.488l147.7-73.853z" fill="#eaeae8"/><path d="m312 349.859-16-8v-32h-80v32l-16 8 56 26.141z" fill="#fdc9a6"/><path d="m152 192v-59.156a53.9 53.9 0 0 1 24-44.844l6.535-13.07a53.892 53.892 0 0 1 29.282-26.361l9.06-3.4a93.417 93.417 0 0 1 69.6 1.605 93.419 93.419 0 0 1 36.149 27.508l15.508 19.385a53.831 53.831 0 0 0 3.976 4.442 47.421 47.421 0 0 1 13.89 33.533v60.358z" fill="#5f4623"/><path d="m224 120a8 8 0 0 1 -8-8v-32a8 8 0 0 1 16 0v32a8 8 0 0 1 -8 8z" fill="#48351b"/><path d="m256 120a8 8 0 0 1 -8-8v-40a8 8 0 0 1 16 0v40a8 8 0 0 1 -8 8z" fill="#48351b"/><path d="m288 120a8 8 0 0 1 -8-8v-32a8 8 0 0 1 16 0v32a8 8 0 0 1 -8 8z" fill="#48351b"/><path d="m256 328a70.9 70.9 0 0 1 -65.827-44.567 198.156 198.156 0 0 1 -14.173-73.596v-57.837l24-40h112l24 40v57.837a198.156 198.156 0 0 1 -14.173 73.6 70.9 70.9 0 0 1 -65.827 44.563z" fill="#fdc9a6"/><path d="m232 448v-56l24-16 24 16v56z" fill="#fbfdff"/><circle cx="256" cy="408" fill="#cbcbcb" r="8"/><path d="m304 184h-24a8 8 0 0 1 0-16h24a8 8 0 0 1 0 16z" fill="#48351b"/><circle cx="290" cy="199.859" fill="#48351b" r="10"/><path d="m232 184h-24a8 8 0 0 1 0-16h24a8 8 0 0 1 0 16z" fill="#48351b"/><circle cx="222" cy="199.859" fill="#48351b" r="10"/><path d="m264 245.859h-16a8 8 0 0 1 -8-8v-21.859a8 8 0 0 1 16 0v13.859h8a8 8 0 0 1 0 16z" fill="#f6bb92"/><path d="m176 173.859h-11.056a20.944 20.944 0 0 0 -20.944 20.941v14.111a20.948 20.948 0 0 0 2.211 9.367 20.945 20.945 0 0 0 18.733 11.577h12.056z" fill="#fdc9a6"/><path d="m336 173.859h11.056a20.944 20.944 0 0 1 20.944 20.941v14.111a20.948 20.948 0 0 1 -2.211 9.367 20.945 20.945 0 0 1 -18.733 11.577h-12.056z" fill="#fdc9a6"/><path d="m72 488v-34.141a8 8 0 1 1 16 0v34.141z" fill="#cbcbcb"/><path d="m424 488v-34.141a8 8 0 1 1 16 0v34.141z" fill="#cbcbcb"/><path d="m144 373.859v74.141h-32v-58.141z" fill="#48351b"/><path d="m368 373.859v74.141h32v-58.141z" fill="#48351b"/><g fill="#5f4623"><path d="m296 248-40-16-32 16-48-24v33.837a80 80 0 0 0 50.289 74.278 80 80 0 0 0 59.422 0 80 80 0 0 0 50.289-74.278v-33.837z"/><path d="m232 304v30.15c-1.92-.6-3.83-1.28-5.71-2.03a79.536 79.536 0 0 1 -10.29-5v-23.12a8 8 0 0 1 16 0z"/><path d="m264 312v25.43a78.254 78.254 0 0 1 -16 0v-25.43a8 8 0 0 1 16 0z"/><path d="m296 304v23.12a79.536 79.536 0 0 1 -10.29 5c-1.88.75-3.79 1.43-5.71 2.03v-30.15a8 8 0 0 1 16 0z"/></g><path d="m400 448 8 40h-304l8-40z" fill="#8f6934"/><path d="m232 304v30.15c-1.92-.6-3.83-1.28-5.71-2.03a79.536 79.536 0 0 1 -10.29-5v-23.12a8 8 0 0 1 16 0z" fill="#48351b"/><path d="m264 312v25.43a78.254 78.254 0 0 1 -16 0v-25.43a8 8 0 0 1 16 0z" fill="#48351b"/><path d="m296 304v23.12a79.536 79.536 0 0 1 -10.29 5c-1.88.75-3.79 1.43-5.71 2.03v-30.15a8 8 0 0 1 16 0z" fill="#48351b"/><path d="m272 280h-32a8 8 0 0 1 0-16h32a8 8 0 0 1 0 16z" fill="#f6bb92"/><path d="m208 344 48 32-56 40-16.535-57.873z" fill="#cbcbcb"/><path d="m304 344-48 32 56 40 16.535-57.873z" fill="#cbcbcb"/></g></svg>