<svg id="Layer_1" data-name="Layer 1" xmlns="http://www.w3.org/2000/svg" viewBox="0 0 367 186"><defs><style>.cls-1{fill:#fff;}</style></defs><title>SpacedoutArtboard 9</title><path class="cls-1" d="M75.8,141.74c0-20.5-15.6-34.8-35-34.8A34.82,34.82,0,0,0,13.92,119q1.08,4.81,2.39,9.55A26.53,26.53,0,0,1,40.8,113.44c15.9,0,27.5,12.1,27.5,28.3s-11.6,28.31-27.5,28.31a28.7,28.7,0,0,1-8.55-1.28c1.34,2.54,2.72,5,4.16,7.51a37.36,37.36,0,0,0,4.39.27C60.2,176.55,75.8,162.25,75.8,141.74Z"/><path class="cls-1" d="M48.2,58.54c0-10.2-5.8-15.8-17.1-20.8l-5.4-2.5c-6.63-3.05-9.91-5.5-10.64-10.06q-1.29,5.16-2.31,10.41A35.52,35.52,0,0,0,22.8,41.84l5.4,2.5c8.5,3.8,12.8,7.3,12.8,14.2,0,7.21-6.2,11.61-14.1,11.61-9.47,0-14.17-4.77-17.36-10.37q-.37,5.2-.49,10.5C13.16,74,19,76.55,27.1,76.55,39.3,76.55,48.2,69.75,48.2,58.54Z"/><path class="cls-1" d="M25.7,13.34c6.4,0,10,3.2,12.6,7.4l5.8-3.6c-3.6-6-9.3-10.2-18.4-10.2a22.13,22.13,0,0,0-5.37.65q-1.51,4.32-2.83,8.72A11.24,11.24,0,0,1,25.7,13.34Z"/><path class="cls-1" d="M89.9,152.54v-44.8h7.2V152c0,12.11,6.6,18.11,17.2,18.11s17.2-6,17.2-18.11v-44.3h7.2v44.8c0,15.91-10.6,24-24.4,24S89.9,168.45,89.9,152.54Z"/><path class="cls-1" d="M171.6,114.14H150.7v-6.4h49v6.4H178.8v61.61h-7.2Z"/><path class="cls-1" d="M62.9,7.74H78.3c18.6,0,28.1,10.3,28.1,25.6,0,15-9.5,25.51-28.1,25.51H70.1v16.9H62.9Zm15,44.8c15.3,0,21-8,21-19.2s-5.7-19.2-21-19.2H70.1v38.4Z"/><path class="cls-1" d="M137.9,7h1.2l28.8,68.71h-7.6l-4.6-11.4H121.3l-4.5,11.4h-7.1Zm15.2,51.11-12-30.21a84.36,84.36,0,0,1-2.6-8.1s-1.4,4.9-2.7,8.1l-12,30.21Z"/><path class="cls-1" d="M172.5,41.74c0-20.5,15.6-34.8,34.9-34.8,12,0,21.2,4.5,27,13.2l-5.5,4c-4.4-6.5-11.7-10.7-21.5-10.7-15.9,0-27.4,12.1-27.4,28.3s11.5,28.31,27.4,28.31c9.9,0,17.5-4.3,22.4-11.4l5.6,3.9c-6,8.8-15.8,14-28,14C188.1,76.55,172.5,62.25,172.5,41.74Z"/><path class="cls-1" d="M249,7.74h41.4v6.4H256.2V46h30.5v6.3H256.2v17h35.6v6.4H249Z"/><path class="cls-1" d="M307,7.74h16.5c22.7,0,36.8,13.4,36.8,34s-14,34-36.8,34H307Zm16,61.51c20.1,0,29.7-11.31,29.7-27.51s-9.6-27.5-29.7-27.5h-8.8v55Z"/></svg>